<?xml version="1.0" encoding="utf-8"?>
<!-- Generator: Adobe Illustrator 17.0.1, SVG Export Plug-In . SVG Version: 6.00 Build 0)  -->
<!DOCTYPE svg PUBLIC "-//W3C//DTD SVG 1.1//EN" "http://www.w3.org/Graphics/SVG/1.1/DTD/svg11.dtd">
<svg version="1.1" id="Layer_2" xmlns="http://www.w3.org/2000/svg" xmlns:xlink="http://www.w3.org/1999/xlink" x="0px" y="0px"
	 width="405.983px" height="400.112px" viewBox="0 0 405.983 400.112" enable-background="new 0 0 405.983 400.112"
	 xml:space="preserve">
<path opacity="0.95" fill="#BC5815" d="M206.081,200.894L263.833,5.361c0,0-94.987,56.997-107.25,71.079
	c-5.277,6.06-17.976,22.357-22.309,50.75l-12.081,47.306c0,0-4.931,19.277,15.662,20.181L206.081,200.894z"/>
<g opacity="0.95">
	<path opacity="0.9" fill="#A0952A" d="M202.88,202.041l203.104-17.81c0,0-87.804-67.539-105.398-73.799
		c-7.57-2.693-27.385-8.548-55.393-2.189l-48.446,6.069c0,0-19.744,2.466-13.05,21.961L202.88,202.041z"/>
	<path opacity="0.95" fill="#FFFA40" d="M202.691,201.634l-20.839-70.592c0,0-2.745-15.682,16.806-17.394
		s61.512-12.315,79.842-7.888C278.5,105.76,238.647,103.598,202.691,201.634z"/>
</g>
<g opacity="0.95">
	<path opacity="0.9" fill="#537521" d="M200.201,200.819l43.019,199.293c0,0,56.053-95.547,60.068-113.784
		c1.728-7.847,5.063-28.237-4.741-55.233l-12.067-47.309c0,0-4.911-19.282-23.418-10.207L200.201,200.819z"/>
	<path opacity="0.95" fill="#8EDD3A" d="M200.581,200.581l67.439-29.486c0,0,15.217-4.68,19.355,14.504s20.128,64.068,17.791,78.233
		C305.167,263.832,302.338,224.02,200.581,200.581z"/>
</g>
<g opacity="0.95">
	<path opacity="0.95" fill="#2F506B" d="M202.626,199.976L26.014,301.841c0,0,108.106,24.172,126.697,22.422
		c8-0.753,28.434-3.809,51.142-21.394l41.358-25.948c0,0,16.859-10.569,2.562-25.417L202.626,199.976z"/>
	<path opacity="0.95" fill="#6C9DE5" d="M202.969,200.265l48.685,55.202c0,0,9.107,13.058-7.895,22.862
		c-17.002,9.803-51.004,35.671-69.053,40.848C174.706,319.177,211.749,304.317,202.969,200.265z"/>
</g>
<g opacity="0.95">
	<path opacity="0.95" fill="#84171F" d="M203.1,198.744L35.593,82.513c0,0,24.287,108.08,33.806,124.145
		c4.096,6.913,15.581,24.087,41.177,37.116l41.12,26.325c0,0,16.754,10.734,24.079-8.533L203.1,198.744z"/>
	<path opacity="0.95" fill="#F41E37" d="M202.985,199.177l-29.138,67.591c0,0-7.922,13.81-24.045,2.619
		s-53.964-30.054-66.416-45.009C83.386,224.378,112.636,251.533,202.985,199.177z"/>
</g>
<path opacity="0.95" fill="#F97E19" d="M206.268,200.883l-73.322-6.44c0,0-15.599-3.185-10.037-22.006s13.261-67.051,21.877-77.19
	C144.787,95.246,128.191,131.544,206.268,200.883z"/>
<circle fill="#D8D8D8" stroke="#3D3D3D" stroke-width="5" stroke-miterlimit="10" cx="202.399" cy="200.405" r="4.721"/>
</svg>
